<svg xmlns="http://www.w3.org/2000/svg" version="1.1" xmlns:xlink="http://www.w3.org/1999/xlink" xmlns:svgjs="http://svgjs.com/svgjs" preserveAspectRatio="none" viewBox="0 0 1440 560"><g mask="url(&quot;#SvgjsMask1123&quot;)" fill="none"><rect width="1440" height="560" x="0" y="0" fill="rgba(105, 21, 59, 1)"></rect><path d="M1464 560L0 560 L0 382.3Q14.79 325.09, 72 339.87Q118.29 314.16, 144 360.45Q219.15 315.6, 264 390.75Q330.15 336.9, 384 403.06Q402.17 349.23, 456 367.39Q485.48 276.87, 576 306.35Q622.19 280.55, 648 326.74Q714.18 272.92, 768 339.1Q844.69 295.8, 888 372.49Q939.83 352.31, 960 404.14Q993.63 317.77, 1080 351.4Q1094.89 294.29, 1152 309.18Q1193.58 278.75, 1224 320.33Q1297.53 273.86, 1344 347.38Q1426.44 309.82, 1464 392.26z" fill="rgba(105, 21, 59, 1)"></path><path d="M1512 560L0 560 L0 428.69Q68.2 424.89, 72 493.09Q92.38 393.47, 192 413.85Q233.55 383.4, 264 424.95Q319.77 408.72, 336 464.49Q388.39 396.88, 456 449.27Q470.74 392, 528 406.74Q580.7 339.44, 648 392.14Q746.45 370.59, 768 469.04Q778.96 408, 840 418.95Q869.82 376.77, 912 406.59Q974.94 397.53, 984 460.48Q1012.26 416.74, 1056 445Q1134.66 403.66, 1176 482.33Q1220.19 454.52, 1248 498.72Q1272.83 403.55, 1368 428.37Q1396.82 385.19, 1440 414Q1498.37 400.37, 1512 458.74z" fill="rgba(79, 22, 48, 1)"></path><path d="M1512 560L0 560 L0 527.73Q66.82 474.55, 120 541.37Q195.36 496.73, 240 572.09Q270.69 482.78, 360 513.46Q402.22 483.68, 432 525.91Q511.51 485.42, 552 564.93Q575.87 468.79, 672 492.66Q716.79 465.45, 744 510.24Q787.97 434.21, 864 478.18Q909.41 451.6, 936 497.01Q1020.3 461.31, 1056 545.61Q1130.41 500.03, 1176 574.44Q1203.76 530.21, 1248 557.97Q1261.65 499.63, 1320 513.28Q1343.6 464.88, 1392 488.48Q1477.65 454.13, 1512 539.79z" fill="rgba(17, 17, 17, 1)"></path></g><defs><mask id="SvgjsMask1123"><rect width="1440" height="560" fill="#ffffff"></rect></mask></defs></svg>