<svg xmlns="http://www.w3.org/2000/svg" version="1.1" xmlns:xlink="http://www.w3.org/1999/xlink" xmlns:svgjs="http://svgjs.com/svgjs" preserveAspectRatio="none" viewBox="0 0 1440 560"><g mask="url(&quot;#SvgjsMask1024&quot;)" fill="none"><path d="M1512 560L0 560 L0 318.14Q20.44 266.58, 72 287.02Q138.2 233.22, 192 299.41Q276.21 263.62, 312 347.83Q366.11 281.94, 432 336.04Q488.54 320.58, 504 377.12Q522.36 275.48, 624 293.84Q678.97 228.81, 744 283.78Q836.68 256.46, 864 349.14Q890.98 304.12, 936 331.1Q961.18 284.29, 1008 309.47Q1060.91 242.38, 1128 295.3Q1227.58 274.88, 1248 374.46Q1262.11 316.56, 1320 330.67Q1367.46 258.13, 1440 305.59Q1495.59 289.17, 1512 344.76z" fill="rgba(105, 21, 59, 1)"></path><path d="M1464 560L0 560 L0 378.67Q117.74 376.42, 120 494.16Q134.79 436.95, 192 451.73Q203.76 391.5, 264 403.26Q288.24 355.5, 336 379.74Q389.65 361.39, 408 415.04Q498.01 385.05, 528 475.06Q570.48 397.54, 648 440.02Q692.6 364.62, 768 409.21Q819.57 340.78, 888 392.36Q977.71 362.06, 1008 451.77Q1068.63 440.39, 1080 501.02Q1109.12 410.14, 1200 439.26Q1213.07 380.32, 1272 393.39Q1342.64 344.03, 1392 414.67Q1448.48 399.15, 1464 455.64z" fill="rgba(79, 22, 48, 1)"></path><path d="M1512 560L0 560 L0 559.65Q11.31 498.96, 72 510.28Q141.39 459.67, 192 529.06Q247.13 512.19, 264 567.33Q305.53 536.86, 336 578.39Q342.81 513.2, 408 520.02Q462.14 454.16, 528 508.31Q547.46 455.76, 600 475.22Q669.2 424.42, 720 493.62Q805.05 506.67, 792 591.73Q788.5 516.23, 864 512.73Q905.72 434.45, 984 476.17Q1067.5 439.67, 1104 523.17Q1170.91 518.08, 1176 584.98Q1189.96 526.94, 1248 540.91Q1285.11 458.01, 1368 495.12Q1396.65 451.77, 1440 480.43Q1492.83 461.26, 1512 514.09z" fill="rgba(15, 15, 15, 1)"></path></g><defs><mask id="SvgjsMask1024"><rect width="1440" height="560" fill="#ffffff"></rect></mask></defs></svg>